<?xml version="1.0" standalone="no"?>
<!DOCTYPE svg PUBLIC "-//W3C//DTD SVG 20010904//EN"
 "http://www.w3.org/TR/2001/REC-SVG-20010904/DTD/svg10.dtd">
<svg version="1.0" xmlns="http://www.w3.org/2000/svg"
 width="100.000000pt" height="65.000000pt" viewBox="0 0 100.000000 65.000000"
 preserveAspectRatio="xMidYMid meet">

<g transform="translate(0.000000,65.000000) scale(0.100000,-0.100000)"
fill="#d3d4d4" stroke="none">
<path d="M114 636 c-3 -8 22 -81 56 -162 49 -116 60 -152 52 -165 -6 -9 -58
-79 -116 -154 -58 -75 -106 -141 -106 -146 0 -5 42 -9 93 -9 l92 0 175 227
c297 385 312 405 302 415 -5 5 -46 8 -92 6 l-84 -3 -40 -50 c-23 -27 -50 -63
-62 -79 l-21 -29 -28 69 c-16 38 -33 75 -38 82 -14 18 -176 17 -183 -2z"/>
<path d="M417 210 c-20 -23 -47 -59 -62 -80 l-26 -37 20 -46 20 -47 90 0 c49
0 92 4 95 9 6 9 -78 219 -93 234 -5 5 -24 -10 -44 -33z"/>
</g>
</svg>
